<svg width="161" height="33" viewBox="0 0 161 33" fill="none" xmlns="http://www.w3.org/2000/svg">
<rect opacity="0.4" width="32.5" height="32.5" fill="url(#paint0_linear)" fill-opacity="0.4"/>
<rect x="16.25" width="32.5" height="32.5" fill="url(#paint1_linear)" fill-opacity="0.8"/>
<rect x="32.5" width="32.5" height="32.5" fill="url(#paint2_linear)"/>
<path d="M78.52 11.616L83.096 18.976V11.616H84.984V22H83.064L78.344 14.384V22H76.456V11.616H78.52ZM92.2607 11.408C92.9541 11.408 93.5887 11.5253 94.1648 11.76C94.7408 11.984 95.2368 12.32 95.6528 12.768C96.5274 13.7067 96.9648 15.0507 96.9648 16.8C96.9648 18.56 96.5274 19.92 95.6528 20.88C94.8207 21.776 93.6847 22.224 92.2448 22.224C90.8154 22.224 89.6847 21.7653 88.8527 20.848C87.9781 19.8987 87.5407 18.5493 87.5407 16.8C87.5407 15.0293 87.9781 13.6747 88.8527 12.736C89.6741 11.8507 90.8101 11.408 92.2607 11.408ZM95.0127 16.832C95.0127 15.6373 94.7621 14.72 94.2607 14.08C93.7701 13.4293 93.1034 13.104 92.2607 13.104C91.4181 13.104 90.7461 13.4293 90.2447 14.08C89.7434 14.72 89.4927 15.6373 89.4927 16.832C89.4927 18.016 89.7434 18.928 90.2447 19.568C90.7461 20.1973 91.4181 20.512 92.2607 20.512C93.1034 20.512 93.7701 20.1973 94.2607 19.568C94.7621 18.928 95.0127 18.016 95.0127 16.832ZM98.1266 11.616H106.447V13.248H103.231V22H101.343V13.248H98.1266V11.616ZM108.338 11.616H115.026V13.248H110.226V15.984H114.722V17.616H110.226V20.352H115.026V22H108.338V11.616ZM118.049 11.616H122.241C123.393 11.616 124.284 11.888 124.913 12.432C125.511 12.9333 125.809 13.5787 125.809 14.368C125.809 14.9547 125.644 15.456 125.313 15.872C124.993 16.288 124.54 16.5813 123.953 16.752C124.54 16.8693 125.025 17.136 125.409 17.552C125.793 17.9573 125.985 18.48 125.985 19.12C125.985 20.4 125.351 21.2747 124.081 21.744C123.601 21.9147 122.993 22 122.257 22H118.049V11.616ZM122.209 20.352C122.817 20.352 123.255 20.2293 123.521 19.984C123.799 19.7387 123.937 19.4133 123.937 19.008C123.937 18.6027 123.793 18.2773 123.505 18.032C123.228 17.776 122.796 17.648 122.209 17.648H119.937V20.352H122.209ZM119.937 16H122.161C122.727 16 123.153 15.8773 123.441 15.632C123.729 15.3867 123.873 15.056 123.873 14.64C123.873 14.2133 123.729 13.8773 123.441 13.632C123.164 13.376 122.743 13.248 122.177 13.248H119.937V16ZM132.728 11.408C133.422 11.408 134.056 11.5253 134.632 11.76C135.208 11.984 135.704 12.32 136.12 12.768C136.995 13.7067 137.432 15.0507 137.432 16.8C137.432 18.56 136.995 19.92 136.12 20.88C135.288 21.776 134.152 22.224 132.712 22.224C131.283 22.224 130.152 21.7653 129.32 20.848C128.446 19.8987 128.008 18.5493 128.008 16.8C128.008 15.0293 128.446 13.6747 129.32 12.736C130.142 11.8507 131.278 11.408 132.728 11.408ZM135.48 16.832C135.48 15.6373 135.23 14.72 134.728 14.08C134.238 13.4293 133.571 13.104 132.728 13.104C131.886 13.104 131.214 13.4293 130.712 14.08C130.211 14.72 129.96 15.6373 129.96 16.832C129.96 18.016 130.211 18.928 130.712 19.568C131.214 20.1973 131.886 20.512 132.728 20.512C133.571 20.512 134.238 20.1973 134.728 19.568C135.23 18.928 135.48 18.016 135.48 16.832ZM143.97 11.408C144.663 11.408 145.298 11.5253 145.874 11.76C146.45 11.984 146.946 12.32 147.362 12.768C148.237 13.7067 148.674 15.0507 148.674 16.8C148.674 18.56 148.237 19.92 147.362 20.88C146.53 21.776 145.394 22.224 143.954 22.224C142.525 22.224 141.394 21.7653 140.562 20.848C139.687 19.8987 139.25 18.5493 139.25 16.8C139.25 15.0293 139.687 13.6747 140.562 12.736C141.383 11.8507 142.519 11.408 143.97 11.408ZM146.722 16.832C146.722 15.6373 146.471 14.72 145.97 14.08C145.479 13.4293 144.813 13.104 143.97 13.104C143.127 13.104 142.455 13.4293 141.954 14.08C141.453 14.72 141.202 15.6373 141.202 16.832C141.202 18.016 141.453 18.928 141.954 19.568C142.455 20.1973 143.127 20.512 143.97 20.512C144.813 20.512 145.479 20.1973 145.97 19.568C146.471 18.928 146.722 18.016 146.722 16.832ZM153.132 11.616V15.888L157.228 11.616H159.82L155.244 16.288L160.124 22H157.676L153.98 17.6L153.132 18.464V22H151.228V11.616H153.132Z" fill="#53424D"/>
<defs>
<linearGradient id="paint0_linear" x1="39.4643" y1="-6.38393" x2="-31.8834" y2="27.6032" gradientUnits="userSpaceOnUse">
<stop offset="0.117146" stop-color="#724751"/>
<stop offset="1" stop-color="white"/>
</linearGradient>
<linearGradient id="paint1_linear" x1="55.7143" y1="-6.38393" x2="-15.6334" y2="27.6032" gradientUnits="userSpaceOnUse">
<stop offset="0.117146" stop-color="#724751"/>
<stop offset="1" stop-color="white"/>
</linearGradient>
<linearGradient id="paint2_linear" x1="71.9643" y1="-6.38393" x2="0.61663" y2="27.6032" gradientUnits="userSpaceOnUse">
<stop offset="0.117146" stop-color="#724751"/>
<stop offset="1" stop-color="white"/>
</linearGradient>
</defs>
</svg>
