<svg width="56" height="56" viewBox="0 0 56 56" fill="none" xmlns="http://www.w3.org/2000/svg">
<path d="M41.8578 8.53125H14.1422C11.0483 8.53125 8.53125 11.0483 8.53125 14.1422V41.8578C8.53125 44.9517 11.0483 47.4688 14.1422 47.4688H41.8578C44.9517 47.4688 47.4688 44.9517 47.4688 41.8578V14.1422C47.4688 11.0483 44.9517 8.53125 41.8578 8.53125ZM45.2812 41.8578C45.2812 43.7455 43.7455 45.2812 41.8578 45.2812H14.1422C12.2545 45.2812 10.7188 43.7455 10.7188 41.8578V14.1422C10.7188 12.2545 12.2545 10.7188 14.1422 10.7188H41.8578C43.7455 10.7188 45.2812 12.2546 45.2812 14.1422V41.8578Z" fill="#53424D"/>
<path d="M40.25 24.3003C40.854 24.3003 41.3438 23.8106 41.3438 23.2065V18.8125C41.3438 16.5208 39.4792 14.6562 37.1875 14.6562H18.8125C16.5208 14.6562 14.6562 16.5208 14.6562 18.8125V37.1875C14.6562 39.4792 16.5208 41.3438 18.8125 41.3438H37.1875C39.4792 41.3438 41.3438 39.4792 41.3438 37.1875V33.143C41.3438 32.5391 40.854 32.0493 40.25 32.0493C39.646 32.0493 39.1562 32.5391 39.1562 33.143V37.1875C39.1562 38.273 38.273 39.1562 37.1875 39.1562H18.8125C17.727 39.1562 16.8438 38.273 16.8438 37.1875V36.8594H24.7552C25.3591 36.8594 25.8489 36.3696 25.8489 35.7656C25.8489 35.1617 25.3591 34.6719 24.7552 34.6719H16.8438V18.8125C16.8438 17.727 17.727 16.8438 18.8125 16.8438H37.1875C38.273 16.8438 39.1562 17.727 39.1562 18.8125V23.2065C39.1562 23.8106 39.646 24.3003 40.25 24.3003Z" fill="#53424D"/>
<path d="M41.0232 26.9872C40.8198 26.7837 40.5377 26.6667 40.25 26.6667C39.9623 26.6667 39.6802 26.7837 39.4767 26.9872C39.2733 27.1906 39.1562 27.4728 39.1562 27.7604C39.1562 28.0481 39.2732 28.3302 39.4767 28.5337C39.6803 28.7373 39.9623 28.8542 40.25 28.8542C40.5377 28.8542 40.8198 28.7373 41.0232 28.5337C41.2266 28.3303 41.3438 28.0481 41.3438 27.7604C41.3438 27.4728 41.2267 27.1906 41.0232 26.9872Z" fill="#53424D"/>
<path d="M54.9062 40.0312H50.5312C49.9273 40.0312 49.4375 40.521 49.4375 41.125C49.4375 41.729 49.9273 42.2188 50.5312 42.2188H54.9062C55.5102 42.2188 56 41.729 56 41.125C56 40.521 55.5102 40.0312 54.9062 40.0312Z" fill="#53424D"/>
<path d="M54.9062 33.4688H50.5312C49.9273 33.4688 49.4375 33.9585 49.4375 34.5625C49.4375 35.1665 49.9273 35.6562 50.5312 35.6562H54.9062C55.5102 35.6562 56 35.1665 56 34.5625C56 33.9585 55.5102 33.4688 54.9062 33.4688Z" fill="#53424D"/>
<path d="M54.9062 26.9062H50.5312C49.9273 26.9062 49.4375 27.3959 49.4375 28C49.4375 28.604 49.9273 29.0938 50.5312 29.0938H54.9062C55.5102 29.0938 56 28.604 56 28C56 27.3959 55.5102 26.9062 54.9062 26.9062Z" fill="#53424D"/>
<path d="M54.9062 13.7812H50.5312C49.9273 13.7812 49.4375 14.2709 49.4375 14.875C49.4375 15.4791 49.9273 15.9688 50.5312 15.9688H54.9062C55.5102 15.9688 56 15.4791 56 14.875C56 14.2709 55.5102 13.7812 54.9062 13.7812Z" fill="#53424D"/>
<path d="M54.9062 20.3438H50.5312C49.9273 20.3438 49.4375 20.8334 49.4375 21.4375C49.4375 22.0416 49.9273 22.5312 50.5312 22.5312H54.9062C55.5102 22.5312 56 22.0416 56 21.4375C56 20.8334 55.5102 20.3438 54.9062 20.3438Z" fill="#53424D"/>
<path d="M5.46875 40.0312H1.09375C0.489781 40.0312 0 40.521 0 41.125C0 41.729 0.489781 42.2188 1.09375 42.2188H5.46875C6.07272 42.2188 6.5625 41.729 6.5625 41.125C6.5625 40.521 6.07272 40.0312 5.46875 40.0312Z" fill="#53424D"/>
<path d="M5.46875 33.4688H1.09375C0.489781 33.4688 0 33.9585 0 34.5625C0 35.1665 0.489781 35.6562 1.09375 35.6562H5.46875C6.07272 35.6562 6.5625 35.1665 6.5625 34.5625C6.5625 33.9585 6.07272 33.4688 5.46875 33.4688Z" fill="#53424D"/>
<path d="M5.46875 26.9062H1.09375C0.489781 26.9062 0 27.3959 0 28C0 28.604 0.489781 29.0938 1.09375 29.0938H5.46875C6.07272 29.0938 6.5625 28.604 6.5625 28C6.5625 27.3959 6.07272 26.9062 5.46875 26.9062Z" fill="#53424D"/>
<path d="M5.46875 13.7812H1.09375C0.489781 13.7812 0 14.2709 0 14.875C0 15.4791 0.489781 15.9688 1.09375 15.9688H5.46875C6.07272 15.9688 6.5625 15.4791 6.5625 14.875C6.5625 14.2709 6.07272 13.7812 5.46875 13.7812Z" fill="#53424D"/>
<path d="M5.46875 20.3438H1.09375C0.489781 20.3438 0 20.8334 0 21.4375C0 22.0416 0.489781 22.5312 1.09375 22.5312H5.46875C6.07272 22.5312 6.5625 22.0416 6.5625 21.4375C6.5625 20.8334 6.07272 20.3438 5.46875 20.3438Z" fill="#53424D"/>
<path d="M14.875 49.4375C14.271 49.4375 13.7812 49.9273 13.7812 50.5312V54.9062C13.7812 55.5102 14.271 56 14.875 56C15.479 56 15.9688 55.5102 15.9688 54.9062V50.5312C15.9688 49.9273 15.479 49.4375 14.875 49.4375Z" fill="#53424D"/>
<path d="M21.4375 49.4375C20.8335 49.4375 20.3438 49.9273 20.3438 50.5312V54.9062C20.3438 55.5102 20.8335 56 21.4375 56C22.0415 56 22.5312 55.5102 22.5312 54.9062V50.5312C22.5312 49.9273 22.0415 49.4375 21.4375 49.4375Z" fill="#53424D"/>
<path d="M28 49.4375C27.396 49.4375 26.9062 49.9273 26.9062 50.5312V54.9062C26.9062 55.5102 27.396 56 28 56C28.604 56 29.0938 55.5102 29.0938 54.9062V50.5312C29.0938 49.9273 28.604 49.4375 28 49.4375Z" fill="#53424D"/>
<path d="M41.125 49.4375C40.521 49.4375 40.0312 49.9273 40.0312 50.5312V54.9062C40.0312 55.5102 40.521 56 41.125 56C41.729 56 42.2188 55.5102 42.2188 54.9062V50.5312C42.2188 49.9273 41.729 49.4375 41.125 49.4375Z" fill="#53424D"/>
<path d="M34.5625 49.4375C33.9585 49.4375 33.4688 49.9273 33.4688 50.5312V54.9062C33.4688 55.5102 33.9585 56 34.5625 56C35.1665 56 35.6562 55.5102 35.6562 54.9062V50.5312C35.6562 49.9273 35.1665 49.4375 34.5625 49.4375Z" fill="#53424D"/>
<path d="M14.875 0C14.271 0 13.7812 0.489672 13.7812 1.09375V5.46875C13.7812 6.07283 14.271 6.5625 14.875 6.5625C15.479 6.5625 15.9688 6.07283 15.9688 5.46875V1.09375C15.9688 0.489672 15.479 0 14.875 0Z" fill="#53424D"/>
<path d="M21.4375 0C20.8335 0 20.3438 0.489672 20.3438 1.09375V5.46875C20.3438 6.07283 20.8335 6.5625 21.4375 6.5625C22.0415 6.5625 22.5312 6.07283 22.5312 5.46875V1.09375C22.5312 0.489672 22.0415 0 21.4375 0Z" fill="#53424D"/>
<path d="M28 0C27.396 0 26.9062 0.489672 26.9062 1.09375V5.46875C26.9062 6.07283 27.396 6.5625 28 6.5625C28.604 6.5625 29.0938 6.07283 29.0938 5.46875V1.09375C29.0938 0.489672 28.604 0 28 0Z" fill="#53424D"/>
<path d="M41.125 0C40.521 0 40.0312 0.489672 40.0312 1.09375V5.46875C40.0312 6.07283 40.521 6.5625 41.125 6.5625C41.729 6.5625 42.2188 6.07283 42.2188 5.46875V1.09375C42.2188 0.489672 41.729 0 41.125 0Z" fill="#53424D"/>
<path d="M34.5625 0C33.9585 0 33.4688 0.489672 33.4688 1.09375V5.46875C33.4688 6.07283 33.9585 6.5625 34.5625 6.5625C35.1665 6.5625 35.6562 6.07283 35.6562 5.46875V1.09375C35.6562 0.489672 35.1665 0 34.5625 0Z" fill="#53424D"/>
<path d="M22.9957 29.7227H21.4837C21.4023 29.7227 21.3361 29.6565 21.3361 29.575V26.425C21.3361 26.3435 21.4023 26.2773 21.4837 26.2773H22.9957C23.5997 26.2773 24.0895 25.7877 24.0895 25.1836C24.0895 24.5795 23.5997 24.0898 22.9957 24.0898H21.4837C20.1962 24.0898 19.1486 25.1374 19.1486 26.425V29.575C19.1486 30.8626 20.196 31.9102 21.4837 31.9102H22.9957C23.5997 31.9102 24.0895 31.4204 24.0895 30.8164C24.0895 30.2124 23.5997 29.7227 22.9957 29.7227Z" fill="#53424D"/>
<path d="M28.0988 24.0898H26.2321C25.6281 24.0898 25.1383 24.5795 25.1383 25.1836V30.8164C25.1383 31.4204 25.6281 31.9102 26.2321 31.9102C26.836 31.9102 27.3258 31.4204 27.3258 30.8164V29.0938H28.0988C29.4784 29.0938 30.6007 27.9713 30.6007 26.5918C30.6007 25.2122 29.4783 24.0898 28.0988 24.0898ZM28.0988 26.9062H27.3258V26.2773H28.0988C28.2721 26.2773 28.4132 26.4184 28.4132 26.5918C28.4132 26.7652 28.2721 26.9062 28.0988 26.9062Z" fill="#53424D"/>
<path d="M35.7577 24.0898C35.1537 24.0898 34.6639 24.5795 34.6639 25.1836V29.179C34.6639 29.4787 34.4201 29.7227 34.1202 29.7227C33.8203 29.7227 33.5764 29.4789 33.5764 29.179V25.1836C33.5764 24.5795 33.0867 24.0898 32.4827 24.0898C31.8787 24.0898 31.3889 24.5795 31.3889 25.1836V29.179C31.3889 30.6849 32.6141 31.9102 34.1202 31.9102C35.6262 31.9102 36.8514 30.6849 36.8514 29.179V25.1836C36.8514 24.5795 36.3617 24.0898 35.7577 24.0898Z" fill="#53424D"/>
<path d="M30.2804 34.9923C30.077 34.7889 29.7949 34.6719 29.5072 34.6719C29.2183 34.6719 28.9372 34.7888 28.7339 34.9923C28.5305 35.1958 28.4135 35.478 28.4135 35.7656C28.4135 36.0533 28.5304 36.3355 28.7339 36.5388C28.9372 36.7423 29.2194 36.8594 29.5072 36.8594C29.7949 36.8594 30.077 36.7423 30.2804 36.5388C30.4838 36.3355 30.601 36.0533 30.601 35.7656C30.601 35.478 30.4839 35.1958 30.2804 34.9923Z" fill="#53424D"/>
</svg>
