<svg width="56" height="56" viewBox="0 0 56 56" fill="none" xmlns="http://www.w3.org/2000/svg">
<path d="M55.0667 12.1333H11.2V7.46663C11.2 5.92021 9.94642 4.66663 8.4 4.66663H0.933333C0.4179 4.66663 0 5.08453 0 5.59996V9.33329C0 9.84873 0.4179 10.2666 0.933333 10.2666H5.6V15.8666H2.8C2.28457 15.8666 1.86667 16.2845 1.86667 16.8C1.86667 17.3154 2.28457 17.7333 2.8 17.7333H5.6V18.6666H2.8C2.28457 18.6666 1.86667 19.0845 1.86667 19.6V32.6666C1.86667 33.1821 2.28457 33.6 2.8 33.6H5.6V34.5333H2.8C2.28457 34.5333 1.86667 34.9512 1.86667 35.4666C1.86667 35.9821 2.28457 36.4 2.8 36.4H5.6V50.4C5.6 50.9154 6.0179 51.3333 6.53333 51.3333H10.2667C10.7821 51.3333 11.2 50.9154 11.2 50.4V43.8666H15.8667V48.5333C15.8667 49.0487 16.2846 49.4666 16.8 49.4666H28C28.5154 49.4666 28.9333 49.0487 28.9333 48.5333V47.6C28.9333 47.0845 29.3512 46.6666 29.8667 46.6666C30.3821 46.6666 30.8 47.0845 30.8 47.6V48.5333C30.8 49.0487 31.2179 49.4666 31.7333 49.4666H50.4C50.9154 49.4666 51.3333 49.0487 51.3333 48.5333V43.8666H55.0667C55.5821 43.8666 56 43.4487 56 42.9333V13.0666C56 12.5512 55.5821 12.1333 55.0667 12.1333ZM5.6 31.7333H3.73333V20.5333H5.6V31.7333ZM9.33333 49.4666H7.46667V9.33329C7.46667 8.81786 7.04877 8.39996 6.53333 8.39996H1.86667V6.53329H8.4C8.91543 6.53329 9.33333 6.95119 9.33333 7.46663V49.4666ZM49.4667 47.6H47.6V44.8H45.7333V47.6H43.8667V44.8H42V47.6H40.1333V44.8H38.2667V47.6H36.4V44.8H34.5333V47.6H32.6667C32.6667 46.0535 31.4131 44.8 29.8667 44.8C28.3202 44.8 27.0667 46.0535 27.0667 47.6H25.2V44.8H23.3333V47.6H21.4667V44.8H19.6V47.6H17.7333V43.8666H49.4667V47.6ZM54.1333 42H11.2V14H54.1333V42Z" fill="#53424D"/>
<path d="M27.859 34.2132L27.8637 34.2141C30.0483 37.8803 33.9991 40.1282 38.2666 40.1333C40.4499 40.1321 42.5918 39.5372 44.463 38.4123L44.4807 38.4029C46.2071 37.3668 47.6499 35.9193 48.6807 34.1899C48.7204 34.1388 48.7542 34.0834 48.7815 34.0247C50.9729 30.2328 50.9304 25.5495 48.6705 21.798V21.7915C45.2735 16.0547 37.8692 14.158 32.1325 17.5548C32.1073 17.5698 32.0822 17.5847 32.0571 17.5999H32.0506C26.3139 20.9968 24.4171 28.4011 27.814 34.1378C27.8289 34.163 27.844 34.1881 27.859 34.2132ZM32.1747 36.2469C31.2461 35.562 30.4385 34.7267 29.7854 33.7755H29.7807L31.5541 32.2299C32.2865 31.5919 33.1514 31.1243 34.0862 30.8607L35.4862 30.4687L35.5002 30.4864L34.7423 31.262C33.8704 32.1561 33.2076 33.2326 32.8019 34.4139L32.1747 36.2469ZM36.7425 36.2861L37.1158 38.1985C35.968 38.0689 34.8507 37.7448 33.8118 37.24L34.5706 35.0224C34.8853 34.102 35.4005 33.2629 36.0789 32.5659L37.0953 31.5271L37.1158 31.5336L36.847 32.5855C36.5391 33.7961 36.5034 35.06 36.7425 36.2861ZM39.0301 38.2284L38.5774 35.9259C38.3909 34.9726 38.4186 33.9897 38.6586 33.0484L39.0133 31.6577L39.0431 31.6503L39.3343 32.6816C39.6733 33.8838 40.2744 34.9959 41.0946 35.938L42.3733 37.4052C41.3135 37.8668 40.183 38.1452 39.0301 38.2284ZM44.0421 36.4812L44.0374 36.4821L42.4918 34.7088C41.8539 33.9764 41.3863 33.1115 41.1226 32.1767L40.7306 30.7767L40.7483 30.7627L41.5239 31.5205C42.4181 32.3925 43.4946 33.0553 44.6758 33.4609L46.5089 34.0881C45.8257 35.0177 44.992 35.8266 44.0421 36.4812ZM47.5066 32.4548L45.289 31.696C44.3703 31.3806 43.5328 30.8656 42.8371 30.1877L41.7983 29.1713L41.8049 29.1508L42.8567 29.4196C44.0675 29.727 45.3312 29.7627 46.5574 29.5241L48.4698 29.1508C48.3387 30.2988 48.0129 31.4161 47.5066 32.4548ZM47.6718 23.8933C48.1337 24.9539 48.4121 26.0854 48.495 27.2393H48.4922L46.1897 27.692C45.2363 27.8781 44.2536 27.8503 43.3122 27.6108L41.9215 27.2561L41.9141 27.2263L42.9407 26.9369C44.143 26.598 45.2551 25.9968 46.1971 25.1767L47.6718 23.8933ZM44.3501 19.754C45.2817 20.4379 46.092 21.273 46.7478 22.2245L46.7441 22.2255L44.9707 23.7711C44.2383 24.409 43.3735 24.8766 42.4386 25.1403L41.0386 25.5323L41.0246 25.5145L41.7825 24.7389C42.6544 23.8448 43.3172 22.7683 43.7229 21.5871L44.3501 19.754ZM39.7879 19.7139L39.4146 17.8015C40.5637 17.9322 41.6819 18.258 42.7214 18.7647L41.9626 20.9823C41.6473 21.901 41.1322 22.7384 40.4543 23.4341H40.4515L39.4351 24.4729L39.4146 24.4664L39.6834 23.4145C39.9913 22.2039 40.027 20.94 39.7879 19.7139ZM40.1333 28C40.1333 29.031 39.2976 29.8667 38.2666 29.8667C37.2356 29.8667 36.3999 29.031 36.3999 28C36.3999 26.969 37.2356 26.1333 38.2666 26.1333C39.2976 26.1333 40.1333 26.969 40.1333 28ZM37.5031 17.7716L37.9558 20.0741C38.1424 21.0274 38.1146 22.0103 37.8746 22.9516L37.5199 24.3423L37.4901 24.3497L37.1989 23.3184C36.8607 22.1182 36.2611 21.0078 35.4433 20.0667L34.1599 18.5948C35.2197 18.1331 36.3502 17.8548 37.5031 17.7716ZM32.4888 19.5204L34.033 21.2921C34.6709 22.0246 35.1385 22.8894 35.4022 23.8243L35.7942 25.2243L35.7765 25.2383L35.0009 24.4804C34.1067 23.6084 33.0303 22.9456 31.849 22.54L30.0159 21.9128C30.701 20.983 31.5368 20.1743 32.4888 19.5204ZM29.0266 23.5452L31.2442 24.304C32.163 24.6193 33.0004 25.1344 33.6961 25.8123L34.7349 26.8287L34.7283 26.8492L33.6765 26.5804C32.4658 26.272 31.2019 26.2363 29.9758 26.4759L28.0634 26.8492C28.1945 25.7012 28.5203 24.5839 29.0266 23.5452ZM30.3407 28.308C31.294 28.121 32.2769 28.1487 33.2182 28.3892L34.6089 28.7439L34.6163 28.7737L33.5897 29.0631C32.3874 29.402 31.2754 30.0032 30.3333 30.8233L28.8614 32.1067C28.3998 31.0469 28.1214 29.9165 28.0382 28.7635L30.3407 28.308Z" fill="#53424D"/>
<path d="M22.4 18.6666H14.9333V26.1333H22.4V18.6666ZM20.5333 24.2666H16.8V20.5333H20.5333V24.2666Z" fill="#53424D"/>
<path d="M22.4 28H14.9333V29.8667H22.4V28Z" fill="#53424D"/>
<path d="M22.4 31.7333H14.9333V33.6H22.4V31.7333Z" fill="#53424D"/>
<path d="M16.8 35.4667H14.9333V37.3333H16.8V35.4667Z" fill="#53424D"/>
<path d="M19.5999 35.4667H17.7333V37.3333H19.5999V35.4667Z" fill="#53424D"/>
<path d="M22.4 35.4667H20.5333V37.3333H22.4V35.4667Z" fill="#53424D"/>
</svg>
