<svg width="56" height="48" viewBox="0 0 56 48" fill="none" xmlns="http://www.w3.org/2000/svg">
<path d="M10.2667 23.0666C9.75127 23.0666 9.33337 23.4845 9.33337 24C9.35741 29.8121 12.9493 35.0125 18.3764 37.0928C18.482 37.1329 18.594 37.1534 18.707 37.1536C19.2224 37.154 19.6406 36.7365 19.6411 36.221C19.6413 35.8336 19.4021 35.4863 19.04 35.3484C14.3352 33.546 11.221 29.0382 11.2 24C11.2 23.4845 10.7821 23.0666 10.2667 23.0666Z" fill="#53424D"/>
<path d="M20.5423 36.8011C20.4691 37.3117 20.8237 37.785 21.3342 37.8581C21.9965 37.952 22.6646 37.9995 23.3334 38C23.8488 38 24.2667 37.5821 24.2667 37.0667C24.2667 36.5512 23.8488 36.1333 23.3334 36.1333C22.7531 36.1331 22.1736 36.0917 21.5993 36.0092C21.0887 35.936 20.6154 36.2906 20.5423 36.8011Z" fill="#53424D"/>
<path d="M7.46661 41.7334C7.46661 40.7025 6.63088 39.8668 5.59994 39.8668C4.56901 39.8668 3.73328 40.7025 3.73328 41.7334C3.73328 42.7644 4.56901 43.6001 5.59994 43.6001C6.63088 43.6001 7.46661 42.7644 7.46661 41.7334Z" fill="#53424D"/>
<path d="M7.46661 6.26675C7.46661 5.23582 6.63088 4.40009 5.59994 4.40009C4.56901 4.40009 3.73328 5.23582 3.73328 6.26675C3.73328 7.29769 4.56901 8.13342 5.59994 8.13342C6.63088 8.13342 7.46661 7.29769 7.46661 6.26675Z" fill="#53424D"/>
<path d="M23.3333 21.2C21.7869 21.2 20.5333 22.4536 20.5333 24C20.5333 25.5465 21.7869 26.8 23.3333 26.8C24.8797 26.8 26.1333 25.5465 26.1333 24C26.1333 22.4536 24.8797 21.2 23.3333 21.2ZM23.3333 24.9334C22.8179 24.9334 22.4 24.5155 22.4 24C22.4 23.4846 22.8179 23.0667 23.3333 23.0667C23.8488 23.0667 24.2667 23.4846 24.2667 24C24.2667 24.5155 23.8488 24.9334 23.3333 24.9334Z" fill="#53424D"/>
<path d="M23.3334 16.5333C23.8488 16.5333 24.2667 16.1154 24.2667 15.6L24.2667 11.8667C24.2667 11.3512 23.8488 10.9333 23.3334 10.9333C22.8179 10.9333 22.4 11.3512 22.4 11.8667L22.4 15.6C22.4 16.1154 22.8179 16.5333 23.3334 16.5333Z" fill="#53424D"/>
<path d="M19.8958 16.0863C19.8958 15.9225 19.8527 15.7615 19.7708 15.6196L17.9041 12.3875C17.9021 12.3839 17.9 12.3804 17.8979 12.3768C17.6373 11.9321 17.0654 11.7829 16.6208 12.0436C16.1761 12.3042 16.0269 12.8761 16.2876 13.3207L18.1542 16.5529C18.321 16.8416 18.6291 17.0195 18.9625 17.0195C19.4779 17.0196 19.8958 16.6017 19.8958 16.0863Z" fill="#53424D"/>
<path d="M39.7768 0.866436C39.6123 0.737053 39.4092 0.666703 39.2 0.666703L2.8 0.666702C1.25358 0.666702 5.41546e-07 1.92028 5.23105e-07 3.4667L3.33897e-08 44.5334C1.49488e-08 46.0798 1.25358 47.3334 2.8 47.3334L39.2 47.3334C39.4133 47.3334 39.6201 47.2602 39.7861 47.1262L43.246 44.3262C43.586 44.0512 44.0718 44.0512 44.4117 44.3262L47.9537 47.1318C48.1187 47.2623 48.323 47.3334 48.5333 47.3334L53.2 47.3334C54.7464 47.3334 56 46.0798 56 44.5334L56 3.4667C56 1.92028 54.7464 0.666703 53.2 0.666703L48.5333 0.666703C48.3187 0.66647 48.1105 0.740666 47.9444 0.876702L44.52 3.66644C44.1814 3.94247 43.6967 3.94667 43.3533 3.6767L39.7768 0.866436ZM45.6932 5.11497L48.8647 2.53337L53.2 2.53337C53.7154 2.53337 54.1333 2.95127 54.1333 3.4667L54.1333 44.5334C54.1333 45.0488 53.7154 45.4667 53.2 45.4667L50.4 45.4667L50.4 37.8227C51.1291 37.4602 51.6616 36.7952 51.856 36.0046L52.668 32.7594C53.0495 31.2714 52.1526 29.7559 50.6647 29.3744C50.5775 29.352 50.4891 29.3339 50.4 29.32L50.4 10.9334C50.4 10.4179 49.9821 10 49.4667 10C48.9512 10 48.5333 10.4179 48.5333 10.9334L48.5333 29.0624L40.6084 27.991C42.8358 18.4299 36.8908 8.87351 27.3298 6.6461C17.7687 4.41871 8.2124 10.3637 5.98488 19.9248C3.75748 29.4857 9.70247 39.0421 19.2635 41.2696C26.937 43.0573 34.8717 39.5803 38.7585 32.7267L47.9313 37.8516C48.1236 37.9436 48.3256 38.0137 48.5333 38.0607L48.5333 45.2091L45.5719 42.8636C44.5479 42.0436 43.0902 42.0501 42.0737 42.8795L38.8696 45.4667L2.8 45.4667C2.28457 45.4667 1.86667 45.0488 1.86667 44.5334L1.86667 3.4667C1.86667 2.95127 2.28457 2.53337 2.8 2.53337L38.8771 2.53337L42.1941 5.1467C43.2228 5.96057 44.6795 5.94738 45.6932 5.11497ZM30.8091 27.6092C30.7581 27.989 30.9443 28.3613 31.2788 28.5482L37.1355 31.8204C32.8316 39.3731 23.2201 42.0066 15.6674 37.7028C8.11475 33.3989 5.48123 23.7874 9.78507 16.2347C14.0889 8.68205 23.7005 6.04853 31.2531 10.3524C37.3513 13.8274 40.4116 20.9202 38.7557 27.7408L31.8584 26.8084C31.3475 26.7398 30.8778 27.0984 30.8091 27.6092ZM38.8472 30.6351L38.8425 30.6351L36.4933 29.32L39.3195 29.7036L39.3316 29.7036L50.0976 31.1578C50.356 31.1934 50.5867 31.3386 50.7304 31.5563C50.8774 31.7756 50.9235 32.0474 50.8573 32.303L50.0435 35.5566C49.9778 35.8275 49.7927 36.054 49.5404 36.1726C49.3062 36.2867 49.0343 36.2948 48.7937 36.195L38.8472 30.6351Z" fill="#53424D"/>
<path d="M52.2667 6.26675C52.2667 5.23582 51.4309 4.40009 50.4 4.40009C49.3691 4.40009 48.5333 5.23582 48.5333 6.26675C48.5333 7.29769 49.3691 8.13342 50.4 8.13342C51.4309 8.13342 52.2667 7.29769 52.2667 6.26675Z" fill="#53424D"/>
<path d="M23.3334 17.4667C19.7251 17.4667 16.8 20.3917 16.8 24C16.8 27.6083 19.7251 30.5333 23.3334 30.5333C26.9416 30.5333 29.8667 27.6083 29.8667 24C29.8626 20.3935 26.9399 17.4707 23.3334 17.4667ZM23.3334 28.6667C20.7561 28.6667 18.6667 26.5773 18.6667 24C18.6667 21.4227 20.7561 19.3333 23.3334 19.3333C25.9107 19.3333 28 21.4227 28 24C27.997 26.576 25.9094 28.6636 23.3334 28.6667Z" fill="#53424D"/>
<path d="M28.3416 17.1922L30.2083 13.9582C30.469 13.5136 30.3199 12.9417 29.8753 12.681C29.4307 12.4202 28.8588 12.5693 28.5981 13.0139C28.596 13.0176 28.5939 13.0212 28.5918 13.0248L26.7251 16.2588C26.4704 16.7069 26.6271 17.2767 27.0753 17.5314C27.5191 17.7838 28.0833 17.6327 28.3416 17.1922Z" fill="#53424D"/>
<path d="M33.3742 17.1251L30.1411 18.9918C29.693 19.2465 29.5362 19.8163 29.7909 20.2644C30.0456 20.7125 30.6154 20.8693 31.0635 20.6146C31.0671 20.6125 31.0707 20.6104 31.0743 20.6083L34.3074 18.7417C34.7555 18.487 34.9123 17.9172 34.6576 17.4691C34.4029 17.021 33.8331 16.8642 33.385 17.1188C33.3814 17.1209 33.3778 17.123 33.3742 17.1251Z" fill="#53424D"/>
</svg>
