<svg width="56" height="56" viewBox="0 0 56 56" fill="none" xmlns="http://www.w3.org/2000/svg">
<path d="M17.7333 32.6667H27.0666V15.8667H17.7333V32.6667ZM19.5999 17.7334H25.1999V30.8H19.5999V17.7334Z" fill="#53424D"/>
<path d="M28.9333 32.6667H38.2667V15.8667H28.9333V32.6667ZM30.8 17.7334H36.4V30.8H30.8V17.7334Z" fill="#53424D"/>
<path d="M6.53333 32.6667H15.8667L15.8667 15.8667H6.53333L6.53333 32.6667ZM8.39999 17.7334H14V30.8H8.39999V17.7334Z" fill="#53424D"/>
<path d="M40.1333 32.6667H49.4666V15.8667H40.1333V32.6667ZM42 17.7334H47.6V30.8H42V17.7334Z" fill="#53424D"/>
<path d="M55.0667 21.4667C55.5821 21.4667 56 21.0488 56 20.5334V13.0667C56 11.5203 54.7464 10.2667 53.2 10.2667L2.8 10.2667C1.25358 10.2667 0 11.5203 0 13.0667L0 20.5334C0 21.0488 0.4179 21.4667 0.933333 21.4667C1.44877 21.4667 1.86667 21.8846 1.86667 22.4001C1.86667 22.9155 1.44877 23.3334 0.933333 23.3334C0.4179 23.3334 0 23.7513 0 24.2667L0 37.3334C0 37.8488 0.4179 38.2667 0.933333 38.2667H4.66667V44.8001C4.66667 45.3155 5.08457 45.7334 5.6 45.7334H20.5333C21.0488 45.7334 21.4667 45.3155 21.4667 44.8001V42.9334C21.4667 42.418 21.8846 42.0001 22.4 42.0001C22.6518 41.9992 22.8927 42.1026 23.0655 42.2857C23.2386 42.4566 23.3352 42.6901 23.3333 42.9334V44.8001C23.3333 45.3155 23.7512 45.7334 24.2667 45.7334H50.4C50.9154 45.7334 51.3333 45.3155 51.3333 44.8001V38.2667H55.0667C55.5821 38.2667 56 37.8488 56 37.3334V24.2667C56 23.7513 55.5821 23.3334 55.0667 23.3334C54.5512 23.3334 54.1333 22.9155 54.1333 22.4001C54.1333 21.8846 54.5512 21.4667 55.0667 21.4667ZM49.4667 43.8667H47.6V40.1334H45.7333V43.8667H43.8667V40.1334H42V43.8667H40.1333V40.1334H38.2667V43.8667H36.4V40.1334H34.5333V43.8667H32.6667V40.1334H30.8L30.8 43.8667H28.9333L28.9333 40.1334H27.0667L27.0667 43.8667H25.2V42.9334C25.1933 41.3898 23.9436 40.14 22.4 40.1334C20.8536 40.1334 19.6 41.387 19.6 42.9334V43.8667H17.7333L17.7333 40.1334H15.8667V43.8667H14V40.1334H12.1333V43.8667H10.2667V40.1334H8.4V43.8667H6.53333V38.2667H49.4667V43.8667ZM54.1333 19.7597C52.6751 20.2743 51.9101 21.8737 52.4248 23.3319C52.7066 24.1305 53.3348 24.7586 54.1333 25.0405V36.4001H1.86667L1.86667 25.0405C3.32488 24.5258 4.08987 22.9265 3.57525 21.4682C3.29338 20.6697 2.66525 20.0415 1.86667 19.7597L1.86667 13.0667C1.86667 12.5513 2.28457 12.1334 2.8 12.1334L53.2 12.1334C53.7154 12.1334 54.1333 12.5513 54.1333 13.0667V19.7597Z" fill="#53424D"/>
</svg>
