<svg width="56" height="56" viewBox="0 0 56 56" fill="none" xmlns="http://www.w3.org/2000/svg">
<path d="M52.6194 3.0556H3.38068C1.5166 3.0556 0 4.5722 0 6.43628V40.4322C0 42.2963 1.5166 43.8129 3.38068 43.8129H20.2529V46.2727C20.2529 48.5277 18.4182 50.3624 16.1632 50.3624H12.4448C11.7319 50.3624 11.1539 50.9403 11.1539 51.6533C11.1539 52.3663 11.7319 52.9443 12.4448 52.9443H43.5551C44.268 52.9443 44.846 52.3663 44.846 51.6533C44.846 50.9403 44.268 50.3624 43.5551 50.3624H39.8365C37.5815 50.3624 35.7469 48.5277 35.7469 46.2727V43.813H52.6191C54.4832 43.813 55.9999 42.2964 55.9999 40.4323V6.43628C56.0001 4.5722 54.4835 3.0556 52.6194 3.0556ZM21.4288 50.3626C22.3088 49.2321 22.835 47.8133 22.835 46.2729V43.8131H33.1652V46.2729C33.1652 47.8133 33.6914 49.2322 34.5714 50.3626H21.4288ZM53.4182 40.4323C53.4182 40.8727 53.0599 41.2312 52.6193 41.2312H3.38068C2.94022 41.2312 2.5818 40.8728 2.5818 40.4323V33.6474H53.4182V40.4323ZM53.4182 31.0654H2.58191V6.43628C2.58191 5.99583 2.94022 5.6374 3.38079 5.6374H52.6193C53.0598 5.6374 53.4183 5.99572 53.4183 6.43628V31.0654H53.4182Z" fill="#53424D"/>
<path d="M28.0004 38.8329C28.7698 38.8329 29.3936 38.2091 29.3936 37.4397C29.3936 36.6702 28.7698 36.0464 28.0004 36.0464C27.2309 36.0464 26.6072 36.6702 26.6072 37.4397C26.6072 38.2091 27.2309 38.8329 28.0004 38.8329Z" fill="#53424D"/>
<path d="M30.2135 11.9497C29.7093 11.4456 28.8922 11.4456 28.3877 11.9497L19.2643 21.0731C18.7602 21.5772 18.7602 22.3947 19.2643 22.8989C19.5165 23.151 19.8467 23.277 20.1773 23.277C20.5078 23.277 20.838 23.151 21.0901 22.8989L30.2135 13.7755C30.7176 13.2714 30.7176 12.4539 30.2135 11.9497Z" fill="#53424D"/>
<path d="M35.621 17.2368C35.117 16.7327 34.2999 16.7327 33.7953 17.2367L30.1608 20.871C29.6567 21.3752 29.6567 22.1927 30.1608 22.6968C30.4129 22.9489 30.7432 23.0749 31.0736 23.0749C31.404 23.0749 31.7344 22.9489 31.9865 22.6968L35.621 19.0625C36.1251 18.5584 36.1251 17.7409 35.621 17.2368Z" fill="#53424D"/>
</svg>
