<svg width="49" height="49" viewBox="0 0 49 49" fill="none" xmlns="http://www.w3.org/2000/svg">
<path d="M24.5228 41.1662L15.9316 32.0841L18.7126 29.4534L24.5153 35.5877L30.2837 29.4571L33.0718 32.0804L24.5228 41.1662ZM40.3867 37.5156V11.4844C40.3867 5.15189 35.2348 0 28.9023 0H20.0977C13.7652 0 8.61328 5.15189 8.61328 11.4844V37.5156C8.61328 43.8481 13.7652 49 20.0977 49H28.9023C35.2348 49 40.3867 43.8481 40.3867 37.5156ZM28.9023 3.82812C33.1241 3.82812 36.5586 7.2626 36.5586 11.4844V37.5156C36.5586 41.7374 33.1241 45.1719 28.9023 45.1719H20.0977C15.8759 45.1719 12.4414 41.7374 12.4414 37.5156V11.4844C12.4414 7.2626 15.8759 3.82812 20.0977 3.82812H28.9023ZM24.5 7.75195C23.4428 7.75195 22.5859 8.6088 22.5859 9.66602C22.5859 10.7232 23.4428 11.5801 24.5 11.5801C25.5572 11.5801 26.4141 10.7232 26.4141 9.66602C26.4141 8.6088 25.5572 7.75195 24.5 7.75195ZM24.5 15.4082C23.4428 15.4082 22.5859 16.265 22.5859 17.3223C22.5859 18.3795 23.4428 19.2363 24.5 19.2363C25.5572 19.2363 26.4141 18.3795 26.4141 17.3223C26.4141 16.265 25.5572 15.4082 24.5 15.4082ZM24.5 23.0645C23.4428 23.0645 22.5859 23.9213 22.5859 24.9785C22.5859 26.0357 23.4428 26.8926 24.5 26.8926C25.5572 26.8926 26.4141 26.0357 26.4141 24.9785C26.4141 23.9213 25.5572 23.0645 24.5 23.0645Z" fill="#53424D"/>
</svg>
